<svg width="200" height="53" viewBox="0 0 200 53" fill="none" xmlns="http://www.w3.org/2000/svg">
<path fill-rule="evenodd" clip-rule="evenodd" d="M126.008 27.5999C127.379 27.6011 128.736 27.3233 129.997 26.7834H136.188V0.0302734H129.06V7.66636C128.07 7.35207 127.038 7.19302 126.001 7.19485C122.316 7.12327 118.88 9.05278 117.017 12.2401C115.153 15.4274 115.153 19.3751 117.017 22.5623C118.88 25.7496 122.316 27.6792 126.001 27.6076L126.008 27.5999ZM126.001 14.1371C127.8 14.1371 129.259 15.5993 129.259 17.4031C129.259 19.2069 127.8 20.6692 126.001 20.6692C124.201 20.6692 122.742 19.2069 122.742 17.4031C122.744 15.6002 124.202 14.1392 126.001 14.1371ZM72.5306 11.1427C75.3641 7.46649 80.3165 6.17167 84.5803 7.99219H90.7755V26.7757H84.5803C80.3165 28.5963 75.3641 27.3014 72.5306 23.6253C69.6971 19.9491 69.6971 14.8188 72.5306 11.1427ZM77.3334 17.3763C77.3334 19.1801 78.7921 20.6423 80.5916 20.6423C82.3902 20.6402 83.8478 19.1792 83.8499 17.3763C83.8499 15.5725 82.3911 14.1103 80.5916 14.1103C78.7921 14.1103 77.3334 15.5725 77.3334 17.3763ZM54.6098 7.99218C55.8704 7.45186 57.2275 7.17407 58.5985 7.17568L58.6023 7.18718C62.6222 7.17296 66.2743 9.53046 67.9245 13.2048C69.5747 16.8792 68.9142 21.1828 66.2385 24.1901C63.5628 27.1973 59.3727 28.3455 55.5429 27.1207V34.7338H48.4146V7.99218H54.6098ZM55.5921 18.6453C56.0964 19.8657 57.2845 20.6615 58.6023 20.6615C60.4009 20.6594 61.8584 19.1984 61.8605 17.3955C61.8605 16.0745 61.0667 14.8835 59.8492 14.378C58.6316 13.8725 57.2302 14.1519 56.2984 15.086C55.3665 16.0201 55.0878 17.4249 55.5921 18.6453ZM140.154 11.1427C142.988 7.46649 147.94 6.17167 152.204 7.99219H158.399V26.7757H152.204C147.94 28.5963 142.988 27.3014 140.154 23.6253C137.321 19.9491 137.321 14.8188 140.154 11.1427ZM144.957 17.3763C144.957 19.1801 146.416 20.6423 148.215 20.6423C150.014 20.6402 151.472 19.1792 151.474 17.3763C151.474 15.5725 150.015 14.1103 148.215 14.1103C146.416 14.1103 144.957 15.5725 144.957 17.3763ZM99.8122 7.99219C101.075 7.45085 102.435 7.17304 103.809 7.17568C109.429 7.18413 113.984 11.7496 113.992 17.384V26.7719H106.864V17.384C106.864 15.5823 105.606 14.1179 103.805 14.1179C102.003 14.1179 100.745 15.5823 100.745 17.384V26.7757H93.6169V7.99219H99.8122Z" fill="#2C85D5"/>
<path fill-rule="evenodd" clip-rule="evenodd" d="M0.357303 4.42127C0.601197 1.92184 2.70309 0.0193312 5.20844 0.0303208C7.24728 0.0304454 9.06792 1.30993 9.76309 3.23119C7.43011 4.89143 5.54238 7.10364 4.26768 9.67126C1.80769 9.19541 0.113409 6.9207 0.357303 4.42127ZM29.7829 3.23117C30.4814 1.31076 32.3022 0.0322038 34.3414 0.0303066C36.8337 0.0395632 38.9145 1.93832 39.1571 4.42473C39.3997 6.91113 37.7254 9.17807 35.2822 9.67124C34.0072 7.10267 32.118 4.89023 29.7829 3.23117Z" fill="#2C85D5"/>
<path d="M12.8074 17.3838H2.48193C2.48193 21.9859 4.30602 26.3995 7.55282 29.6533C10.7996 32.9072 15.2031 34.7347 19.7942 34.7336V24.3644C15.9484 24.3623 12.8307 21.2388 12.8265 17.3838" fill="#2C85D5"/>
<path d="M19.7747 10.3999V0.0498047C10.2134 0.0498047 2.4624 7.81931 2.4624 17.4035H12.8069C12.8112 13.5479 15.9283 10.4233 19.7747 10.4191" fill="#ABCEEE"/>
<path d="M19.7749 24.3644V34.7336C24.3674 34.7367 28.7728 32.9101 32.0213 29.6561C35.2697 26.402 37.0948 21.9872 37.0948 17.3838H26.7388C26.7346 21.2373 23.6192 24.3601 19.7749 24.3644" fill="#569DDD"/>
<path d="M19.7749 0.0302734V10.3996C23.6207 10.4038 26.7367 13.5289 26.7388 17.384H37.0948C37.0959 12.7818 35.2727 8.36784 32.0267 5.11328C28.7806 1.85872 24.3775 0.0302733 19.7864 0.0302734" fill="#80B6E6"/>
<path fill-rule="evenodd" clip-rule="evenodd" d="M99.9195 39.3955H98.3477V52.1415H99.9195V46.9128C99.9012 46.6525 99.9377 46.3913 100.027 46.1461C100.32 45.2226 101.167 44.589 102.134 44.5706C103.614 44.5706 104.134 45.7512 104.134 47.1504V52.107H105.706V46.9511C105.706 43.9611 103.835 43.2442 102.688 43.2442C102.122 43.2502 101.567 43.4048 101.078 43.6927C100.608 43.952 100.219 44.3368 99.9539 44.8044H99.9195V39.3955ZM60.4228 40.0395L63.4822 52.107L65.0922 52.1185L66.8055 45.8356C67.1856 44.5397 67.4958 43.2242 67.7347 41.8949H67.7692C67.9592 43.222 68.2222 44.5375 68.5569 45.8356L70.0866 52.1185H71.7119L75.1232 40.051H73.5323L71.9414 46.1384C71.5666 47.6258 71.2301 48.9866 70.9777 50.3091H70.9433C70.7635 49.0403 70.4423 47.6066 70.1019 46.1729L68.6373 40.0395H67.012L65.4058 46.1269L65.3893 46.1895C64.9865 47.7217 64.6154 49.133 64.423 50.3168H64.3885C64.1744 49.1514 63.8531 47.6488 63.4937 46.1461L62.0672 40.0395H60.4228ZM54.5067 52.107L54.3805 51.0145H54.327C53.7055 51.8471 52.7216 52.3281 51.6845 52.3063C49.933 52.3063 49.0381 51.0681 49.0381 49.8146C49.0381 47.7216 50.8967 46.5754 54.239 46.5946V46.4144C54.239 45.6976 54.0402 44.4096 52.2734 44.4096C51.4776 44.4117 50.698 44.6346 50.0209 45.0536L49.6653 44.0147C50.5231 43.4999 51.5069 43.2344 52.5067 43.2481C55.1492 43.2481 55.7917 45.0574 55.7917 46.7939V50.0331C55.7797 50.7285 55.827 51.4236 55.9332 52.1108L54.5067 52.107ZM54.2735 47.6833C52.5602 47.6488 50.6098 47.9554 50.6098 49.6383C50.5777 50.0431 50.7231 50.4419 51.0081 50.7305C51.2931 51.0192 51.6895 51.169 52.0936 51.141C53.031 51.1651 53.8766 50.5794 54.1855 49.692C54.2406 49.5301 54.2703 49.3607 54.2735 49.1898V47.6833ZM80.6606 51.0145L80.783 52.107L82.2133 52.1108C82.1071 51.4236 82.0598 50.7285 82.0718 50.0331V46.7939C82.0718 45.0574 81.4255 43.2481 78.7829 43.2481C77.7843 43.2333 76.8014 43.4989 75.9454 44.0147L76.301 45.0536C76.9779 44.634 77.7577 44.4111 78.5535 44.4096C80.3203 44.4096 80.5153 45.6976 80.5153 46.4144V46.5946C77.1768 46.5754 75.3182 47.7216 75.3182 49.8146C75.3182 51.0681 76.2131 52.3063 77.9607 52.3063C78.9992 52.3293 79.9849 51.8482 80.6071 51.0145H80.6606ZM76.8899 49.6383C76.8899 47.9554 78.8365 47.6488 80.5536 47.6833V49.1898C80.549 49.3609 80.5181 49.5303 80.4618 49.692C80.1553 50.5796 79.3105 51.1659 78.3737 51.141C77.9696 51.169 77.5733 51.0192 77.2882 50.7305C77.0032 50.4419 76.8578 50.0431 76.8899 49.6383ZM86.4276 43.4436V40.9519L84.8979 41.3659V43.4436H83.5518V44.6434H84.8902V49.3699C84.8902 50.3896 85.0508 51.1601 85.4983 51.624C85.9405 52.0829 86.5608 52.3252 87.1962 52.2871C87.6695 52.3026 88.1415 52.2298 88.5883 52.0725L88.5156 50.8918C88.2182 50.9675 87.9122 51.0035 87.6054 50.9991C86.7297 50.9991 86.4276 50.3896 86.4276 49.3163V44.6434H88.6762V43.4436H86.4276ZM96.5044 51.785C95.7244 52.1344 94.8767 52.3059 94.0225 52.2871C91.4144 52.2871 89.7164 50.5123 89.7164 47.8634C89.7164 45.2146 91.5406 43.2634 94.3629 43.2634C95.113 43.2557 95.8562 43.4086 96.5427 43.7119L96.1832 44.9271C95.6222 44.6343 94.9949 44.493 94.3629 44.5169C92.3781 44.5169 91.3035 45.9851 91.3035 47.7906C91.3035 49.7993 92.5884 51.0336 94.3055 51.0336C94.9666 51.0334 95.6195 50.8868 96.2176 50.6043L96.5044 51.785ZM117.476 51.5703C116.29 51.9975 115.039 52.2217 113.778 52.2335C111.958 52.2335 110.459 51.7658 109.277 50.6388C108.245 49.6383 107.599 48.0244 107.599 46.1461C107.618 42.5465 110.084 39.913 114.119 39.913C115.147 39.8892 116.169 40.0785 117.121 40.4689L116.738 41.7415C115.896 41.3712 114.981 41.1932 114.061 41.2202C111.132 41.2202 109.22 43.0487 109.22 46.0732C109.22 49.0978 111.059 50.9455 113.866 50.9455C114.571 50.9841 115.276 50.873 115.935 50.6196V47.0239H113.488V45.7704H117.454L117.476 51.5703ZM127.106 52.107C127.037 51.4285 127.037 50.6388 127.037 49.7456L127.022 43.4436H125.45V48.7604C125.453 49.3525 125.221 49.9213 124.805 50.3414C124.388 50.7614 123.823 50.9981 123.232 50.9991C121.821 50.9991 121.32 49.8875 121.32 48.2391V43.4436H119.748V48.5074C119.748 51.5396 121.373 52.3063 122.731 52.3063C123.904 52.3245 124.996 51.7077 125.588 50.6925H125.626L125.714 52.107H127.106ZM134.307 51.0145L134.433 52.107L135.86 52.1108C135.753 51.4236 135.706 50.7285 135.718 50.0331V46.7939C135.718 45.0574 135.076 43.2481 132.433 43.2481C131.433 43.2344 130.449 43.4999 129.592 44.0147L129.947 45.0536C130.624 44.6346 131.404 44.4117 132.2 44.4096C133.967 44.4096 134.165 45.6976 134.165 46.4144V46.5946C130.823 46.5754 128.964 47.7216 128.964 49.8146C128.964 51.0681 129.859 52.3063 131.611 52.3063C132.648 52.3281 133.632 51.8471 134.253 51.0145H134.307ZM130.536 49.6383C130.536 47.9554 132.487 47.6488 134.2 47.6833V49.1898C134.197 49.3607 134.167 49.5301 134.112 49.692C133.803 50.5794 132.957 51.1651 132.02 51.141C131.616 51.169 131.22 51.0192 130.935 50.7305C130.65 50.4419 130.504 50.0431 130.536 49.6383ZM138.185 43.4627C138.257 44.2486 138.257 45.1264 138.257 46.1461V52.1261H139.81V47.5069C139.813 47.2612 139.837 47.0162 139.883 46.7748C140.078 45.5902 140.881 44.7507 141.99 44.7507C142.17 44.7488 142.349 44.7667 142.525 44.8044V43.3171C142.379 43.2799 142.229 43.2619 142.078 43.2634C140.954 43.3095 139.988 44.0755 139.684 45.1609H139.615L139.558 43.4627H138.185ZM151.386 49.8683V39.3955H149.814V44.5706H149.776C149.386 43.8729 148.491 43.2442 147.172 43.2442C145.061 43.2442 143.275 45.0191 143.294 47.9018C143.294 50.5315 144.9 52.3063 146.992 52.3063C148.218 52.3523 149.362 51.691 149.937 50.6043H149.975L150.044 52.107H151.455C151.386 51.5166 151.386 50.635 151.386 49.8683ZM149.742 46.3071C149.792 46.5244 149.817 46.7471 149.814 46.9703L149.807 48.4729C149.811 48.7013 149.786 48.9292 149.734 49.1514C149.506 50.2415 148.55 51.025 147.439 51.0336C145.741 51.0336 144.885 49.5846 144.885 47.8289C144.885 45.9122 145.848 44.4786 147.474 44.4786C148.568 44.4681 149.517 45.2335 149.742 46.3071ZM157.711 52.107C157.746 51.5166 157.78 50.6388 157.78 49.8683V39.3955H159.337V44.8504H159.371C159.979 43.8085 161.117 43.1934 162.319 43.2557C164.461 43.2557 165.979 45.0459 165.964 47.6794C165.964 50.7768 164.014 52.3178 162.086 52.3178C160.887 52.3847 159.758 51.7493 159.191 50.6886H159.138L159.069 52.1185L157.711 52.107ZM159.336 48.6339C159.341 48.8276 159.365 49.0203 159.409 49.2089C159.678 50.2933 160.65 51.0541 161.765 51.0528C163.409 51.0528 164.392 49.7073 164.392 47.7216C164.392 45.9851 163.497 44.4977 161.818 44.4977C160.679 44.5172 159.695 45.3045 159.424 46.4144C159.373 46.6255 159.344 46.8413 159.336 47.0584V48.6339ZM167.945 46.1461C167.945 45.1264 167.945 44.2486 167.876 43.4627H169.249L169.302 45.1609H169.375C169.679 44.0755 170.645 43.3095 171.769 43.2634C171.92 43.2621 172.07 43.2801 172.217 43.3171V44.8044C172.041 44.7668 171.861 44.7488 171.681 44.7507C170.572 44.7507 169.788 45.5902 169.574 46.7748C169.528 47.0162 169.504 47.2612 169.501 47.5069V52.1261H167.945V46.1461ZM178.484 52.107L178.362 51.0145H178.309C177.686 51.8482 176.701 52.3293 175.662 52.3063C173.914 52.3063 173.02 51.0681 173.02 49.8146C173.02 47.7216 174.878 46.5754 178.217 46.5946V46.4144C178.217 45.6976 178.022 44.4096 176.255 44.4096C175.459 44.4111 174.679 44.634 174.002 45.0536L173.647 44.0147C174.503 43.4989 175.486 43.2333 176.484 43.2481C179.131 43.2481 179.773 45.0574 179.773 46.7939V50.0331C179.761 50.7285 179.809 51.4236 179.915 52.1108L178.484 52.107ZM178.255 47.6833C176.538 47.6488 174.591 47.9554 174.591 49.6383C174.559 50.0431 174.705 50.4419 174.99 50.7305C175.275 51.0192 175.671 51.169 176.075 51.141C177.012 51.1659 177.857 50.5796 178.163 49.692C178.219 49.5303 178.25 49.3609 178.255 49.1898V47.6833ZM182.309 45.7857C182.309 44.8926 182.309 44.1566 182.24 43.4436H183.632L183.72 44.8734H183.758C184.334 43.84 185.434 43.2123 186.615 43.2442C187.812 43.2442 189.674 43.9611 189.674 46.9319V52.107H188.102V47.1236C188.102 45.7282 187.582 44.5629 186.098 44.5629C185.12 44.5801 184.267 45.2322 183.991 46.1729C183.917 46.4111 183.881 46.6595 183.884 46.9089V52.1185H182.312L182.309 45.7857ZM199.69 39.3955V49.8683C199.69 50.635 199.709 51.5166 199.762 52.107H198.351L198.279 50.6043H198.244C197.668 51.6916 196.523 52.3529 195.296 52.3063C193.208 52.3063 191.598 50.5315 191.598 47.9018C191.598 45.0191 193.368 43.2442 195.475 43.2442C196.799 43.2442 197.69 43.8729 198.084 44.5706H198.118V39.3955H199.69ZM198.118 46.9703C198.122 46.7472 198.099 46.5245 198.049 46.3071C197.818 45.2362 196.871 44.4737 195.778 44.4786C194.152 44.4786 193.189 45.9122 193.189 47.8289C193.189 49.5846 194.045 51.0336 195.743 51.0336C196.854 51.025 197.809 50.2415 198.038 49.1514C198.089 48.929 198.112 48.7011 198.107 48.4729L198.118 46.9703Z" fill="#2F3343"/>
</svg>
