<svg id="visual" viewBox="0 0 900 600" width="900" height="600" xmlns="http://www.w3.org/2000/svg" xmlns:xlink="http://www.w3.org/1999/xlink" version="1.1"><rect x="0" y="0" width="900" height="600" fill="#0f172a"></rect><defs><linearGradient id="grad1_0" x1="33.3%" y1="0%" x2="100%" y2="100%"><stop offset="20%" stop-color="#be123c" stop-opacity="1"></stop><stop offset="80%" stop-color="#be123c" stop-opacity="1"></stop></linearGradient></defs><defs><linearGradient id="grad1_1" x1="33.3%" y1="0%" x2="100%" y2="100%"><stop offset="20%" stop-color="#be123c" stop-opacity="1"></stop><stop offset="80%" stop-color="#602057" stop-opacity="1"></stop></linearGradient></defs><defs><linearGradient id="grad1_2" x1="33.3%" y1="0%" x2="100%" y2="100%"><stop offset="20%" stop-color="#0f172a" stop-opacity="1"></stop><stop offset="80%" stop-color="#602057" stop-opacity="1"></stop></linearGradient></defs><defs><linearGradient id="grad2_0" x1="0%" y1="0%" x2="66.7%" y2="100%"><stop offset="20%" stop-color="#be123c" stop-opacity="1"></stop><stop offset="80%" stop-color="#be123c" stop-opacity="1"></stop></linearGradient></defs><defs><linearGradient id="grad2_1" x1="0%" y1="0%" x2="66.7%" y2="100%"><stop offset="20%" stop-color="#602057" stop-opacity="1"></stop><stop offset="80%" stop-color="#be123c" stop-opacity="1"></stop></linearGradient></defs><defs><linearGradient id="grad2_2" x1="0%" y1="0%" x2="66.7%" y2="100%"><stop offset="20%" stop-color="#602057" stop-opacity="1"></stop><stop offset="80%" stop-color="#0f172a" stop-opacity="1"></stop></linearGradient></defs><g transform="translate(900, 0)"><path d="M0 405.6C-61.4 408.3 -122.9 410.9 -155.2 374.7C-187.6 338.6 -190.9 263.7 -223.4 223.4C-256 183.2 -317.7 177.6 -352.9 146.2C-388.2 114.7 -396.9 57.4 -405.6 0L0 0Z" fill="#2f2048"></path><path d="M0 270.4C-41 272.2 -81.9 273.9 -103.5 249.8C-125.1 225.7 -127.3 175.8 -149 149C-170.6 122.1 -211.8 118.4 -235.3 97.5C-258.8 76.5 -264.6 38.2 -270.4 0L0 0Z" fill="#941153"></path><path d="M0 135.2C-20.5 136.1 -41 137 -51.7 124.9C-62.5 112.9 -63.6 87.9 -74.5 74.5C-85.3 61.1 -105.9 59.2 -117.6 48.7C-129.4 38.2 -132.3 19.1 -135.2 0L0 0Z" fill="#be123c"></path></g><g transform="translate(0, 600)"><path d="M0 -405.6C46 -387.3 92 -369 146.6 -353.8C201.1 -338.7 264.1 -326.8 286.8 -286.8C309.5 -246.8 291.8 -178.8 304.9 -126.3C318 -73.8 361.8 -36.9 405.6 0L0 0Z" fill="#2f2048"></path><path d="M0 -270.4C30.7 -258.2 61.4 -246 97.7 -235.9C134.1 -225.8 176.1 -217.9 191.2 -191.2C206.3 -164.6 194.5 -119.2 203.3 -84.2C212 -49.2 241.2 -24.6 270.4 0L0 0Z" fill="#941153"></path><path d="M0 -135.2C15.3 -129.1 30.7 -123 48.9 -117.9C67 -112.9 88 -108.9 95.6 -95.6C103.2 -82.3 97.3 -59.6 101.6 -42.1C106 -24.6 120.6 -12.3 135.2 0L0 0Z" fill="#be123c"></path></g></svg>